PathFileType	4	(X/Y/Z)	/Users/itak/Documents/Research/Walk-IL/dataset/trc/00568_00009.trc
DataRate	CameraRate	NumFrames	NumMarkers	Units	OrigDataRate	OrigDataStartFrame	OrigNumFrames
100.000000	100.000000	4	56	mm	100.000000	66	528
Frame#	Time	RPSI			LPSI			L3			STRN			T10			C7			CLAV			RBAK			LBAK			LSHO			LUPA			LAEL			LAOL			LWTS			LWPS			LFRA			LIFD			LHPS			LHTS			RSHO			RUPA			RAEL			RAOL			RWPS			RFRA			RIFD			RHTS			RHPS			RBHD			LFHD			RFHD			LBHD			LHIP			RHIP			RASI			LASI			LKNE			LTHI			LANK			LTIP			LTOE			LMT1			LMT5			LHEE			RKNE			RTHI			RANK			RTIP			RTOE			RMT1			RMT5			RHEE			RWTS			*53			*54			*55			
		X1	Y1	Z1	X2	Y2	Z2	X3	Y3	Z3	X4	Y4	Z4	X5	Y5	Z5	X6	Y6	Z6	X7	Y7	Z7	X8	Y8	Z8	X9	Y9	Z9	X10	Y10	Z10	X11	Y11	Z11	X12	Y12	Z12	X13	Y13	Z13	X14	Y14	Z14	X15	Y15	Z15	X16	Y16	Z16	X17	Y17	Z17	X18	Y18	Z18	X19	Y19	Z19	X20	Y20	Z20	X21	Y21	Z21	X22	Y22	Z22	X23	Y23	Z23	X24	Y24	Z24	X25	Y25	Z25	X26	Y26	Z26	X27	Y27	Z27	X28	Y28	Z28	X29	Y29	Z29	X30	Y30	Z30	X31	Y31	Z31	X32	Y32	Z32	X33	Y33	Z33	X34	Y34	Z34	X35	Y35	Z35	X36	Y36	Z36	X37	Y37	Z37	X38	Y38	Z38	X39	Y39	Z39	X40	Y40	Z40	X41	Y41	Z41	X42	Y42	Z42	X43	Y43	Z43	X44	Y44	Z44	X45	Y45	Z45	X46	Y46	Z46	X47	Y47	Z47	X48	Y48	Z48	X49	Y49	Z49	X50	Y50	Z50	X51	Y51	Z51	X52	Y52	Z52	X53	Y53	Z53	X54	Y54	Z54	X55	Y55	Z55	X56	Y56	Z56	

67	0.66	-1217.198974609375	1017.220520019531	-115.6417770385742	-1209.885131835938	1020.048156738281	-249.4701080322266	-1205.322875976562	1107.575927734375	-186.6024627685547	-974.4523315429688	1293.166625976562	-190.2611083984375	-1217.057250976562	1233.443115234375	-188.2844390869141	-1166.302490234375	1507.489624023438	-178.1890716552734	-992.3364868164062	1404.650756835938	-190.5894927978516	-1238.679077148438	1383.087890625	-90.33174133300781	-1201.790283203125	1454.363647460938	-269.3504943847656	-1105.3193359375	1477.615600585938	-354.5249938964844	-1118.965698242188	1349.827026367188	-432.2683410644531	-1100.509765625	1129.002197265625	-454.2060852050781	-1186.185668945312	1121.487548828125	-401.4166870117188	-1009.71923828125	886.6673583984375	-405.4299926757812	-1055.843017578125	863.2891845703125	-475.6729431152344	-1078.33251953125	1042.653686523438	-460.6808471679688	-1028.708984375	717.5820922851562	-401.5588073730469	-1047.643798828125	803.5884399414062	-467.2151184082031	-994.5198974609375	808.880126953125	-424.906982421875	-1106.26171875	1469.019165039062	-22.87785720825195	-1122.8466796875	1403.992431640625	45.50761032104492	-1119.995849609375	1113.95458984375	92.12308502197266	-1175.617919921875	1097.156127929688	67.64516448974609	-1031.1923828125	871.8294067382812	113.452522277832	-1110.380615234375	1058.196166992188	100.0584487915039	-985.673828125	718.4288330078125	44.49361038208008	-963.2672119140625	799.6881103515625	57.60477447509766	-1014.812561035156	797.0654907226562	109.7542190551758	-1092.455932617188	1686.745361328125	-124.3594131469727	-918.1074829101562	1703.784423828125	-236.4701690673828	-955.8364868164062	1705.559936523438	-97.08966827392578	-1041.938232421875	1683.374389648438	-282.265869140625	-1080.114990234375	936.2380981445312	-375.0417785644531	-1102.896850585938	940.8165283203125	12.97547721862793	-1011.039916992188	969.5265502929688	-43.39876556396484	-1001.577331542969	959.6829223632812	-319.7619323730469	-1078.257690429688	491.1710815429688	-306.7288208007812	-1067.178344726562	655.0845336914062	-347.4708251953125	-1167.725830078125	27.27227973937988	-292.9873962402344	-1146.332763671875	249.3543395996094	-309.3206787109375	-955.7341918945312	38.38997650146484	-236.1815032958984	-1027.064086914062	42.85920715332031	-201.0903778076172	-1045.379516601562	31.51843643188477	-308.4055786132812	-1236.491333007812	31.12400436401367	-236.3099670410156	-1095.303344726562	496.6313781738281	-31.16104316711426	-1069.669189453125	785.4851684570312	10.97184181213379	-1195.5693359375	38.30677032470703	-43.46850967407227	-1104.369995117188	355.024658203125	-41.22905349731445	-973.2149658203125	37.95626449584961	-75.97181701660156	-1037.606811523438	32.78707504272461	-119.7927703857422	-1063.451904296875	40.42565155029297	-20.79325485229492	-1249.26171875	25.84318733215332	-96.35527038574219	-989.3515014648438	891.6407470703125	43.36463928222656	nan	nan	nan	nan	nan	nan	nan	nan	nan	
68	0.67	-1216.864624023438	1017.249450683594	-116.2754058837891	-1209.479370117188	1020.044311523438	-250.0826568603516	-1204.852783203125	1107.678833007812	-187.2054290771484	-973.8823852539062	1292.982177734375	-190.6512298583984	-1216.473510742188	1233.515502929688	-188.8481597900391	-1165.418701171875	1507.513305664062	-178.6370697021484	-991.623779296875	1404.5107421875	-191.0438079833984	-1237.974243164062	1383.205078125	-90.86927795410156	-1200.925659179688	1454.465576171875	-269.8109436035156	-1104.453857421875	1477.630981445312	-354.9821166992188	-1118.3095703125	1349.821899414062	-432.7124938964844	-1100.567138671875	1129.006225585938	-454.8214721679688	-1186.145874023438	1121.747680664062	-401.9143981933594	-1010.399353027344	886.414794921875	-406.2647094726562	-1056.699340820312	863.1781005859375	-476.4684143066406	-1078.543334960938	1042.588012695312	-461.3379821777344	-1029.709594726562	717.0693359375	-402.4789123535156	-1048.733032226562	803.4338989257812	-468.0392761230469	-995.6207885742188	808.3473510742188	-425.7890625	-1105.513671875	1468.92724609375	-23.32659149169922	-1122.204833984375	1403.95458984375	45.01448059082031	-1119.687622070312	1113.923461914062	91.77072143554688	-1175.302001953125	1097.169677734375	67.25201416015625	-1031.036376953125	871.7410888671875	113.2153091430664	-1110.077880859375	1058.170166015625	99.703857421875	-985.5514526367188	718.348876953125	44.40396118164062	-963.0521850585938	799.606201171875	57.51588821411133	-1014.671447753906	797.0230102539062	109.5360946655273	-1091.30126953125	1686.689697265625	-124.7167129516602	-916.9652709960938	1703.541259765625	-236.9208221435547	-954.647216796875	1705.289428710938	-97.48113250732422	-1040.91552734375	1683.265502929688	-282.6337280273438	-1079.796997070312	936.1937866210938	-375.5491333007812	-1102.65869140625	940.8001708984375	12.4532356262207	-1010.643920898438	969.5465087890625	-43.95733642578125	-1001.116516113281	959.64892578125	-320.2731323242188	-1078.041015625	491.1264953613281	-307.007568359375	-1066.910400390625	655.0390014648438	-347.8848266601562	-1167.723388671875	27.26263999938965	-292.9920349121094	-1146.215454101562	249.3423461914062	-309.4806518554688	-955.7651977539062	38.3975944519043	-236.1862335205078	-1027.082885742188	42.86286544799805	-201.0878295898438	-1045.380615234375	31.51623916625977	-308.4062194824219	-1236.50244140625	31.10515594482422	-236.3328857421875	-1094.908569335938	496.5826721191406	-31.53032302856445	-1069.355102539062	785.5219116210938	10.46494483947754	-1195.570434570312	38.31546401977539	-43.48204040527344	-1104.121948242188	354.9950256347656	-41.40710830688477	-973.2232055664062	37.95658874511719	-75.97621917724609	-1037.609497070312	32.77642822265625	-119.8057174682617	-1063.456298828125	40.43662643432617	-20.80616569519043	-1249.271850585938	25.83880043029785	-96.34854888916016	-989.2572021484375	891.4674072265625	43.20298767089844	nan	nan	nan	nan	nan	nan	nan	nan	nan	
69	0.68	-1216.52490234375	1017.274597167969	-116.9239959716797	-1209.066528320312	1020.042114257812	-250.7109222412109	-1204.376342773438	1107.786987304688	-187.8244171142578	-973.2747802734375	1292.80078125	-191.0695953369141	-1215.873657226562	1233.594116210938	-189.439453125	-1164.497680664062	1507.54052734375	-179.1100463867188	-990.8783569335938	1404.364868164062	-191.5307922363281	-1237.244750976562	1383.3271484375	-91.42805480957031	-1200.029296875	1454.571411132812	-270.3037109375	-1103.551147460938	1477.649658203125	-355.4674987792969	-1117.612670898438	1349.83203125	-433.1830444335938	-1100.589965820312	1129.030395507812	-455.4515075683594	-1186.076171875	1122.013061523438	-402.4462585449219	-1011.039489746094	886.1800537109375	-407.0887145996094	-1057.4736328125	863.0697631835938	-477.263671875	-1078.70458984375	1042.518310546875	-462.0087890625	-1030.619750976562	716.6048583984375	-403.3899841308594	-1049.748779296875	803.2990112304688	-468.8522033691406	-996.6312866210938	807.86279296875	-426.6610717773438	-1104.732421875	1468.833740234375	-23.80060768127441	-1121.537231445312	1403.905395507812	44.50364303588867	-1119.352294921875	1113.896240234375	91.38336181640625	-1174.985595703125	1097.18798828125	66.85711669921875	-1030.860961914062	871.6519165039062	112.9466018676758	-1109.75341796875	1058.14208984375	99.31394195556641	-985.4224243164062	718.2739868164062	44.30332946777344	-962.7139282226562	799.4996948242188	57.42441558837891	-1014.498413085938	796.978271484375	109.2752151489258	-1090.107055664062	1686.624633789062	-125.0890426635742	-915.7813720703125	1703.297241210938	-237.3857421875	-953.4254150390625	1705.014770507812	-97.88855743408203	-1039.855834960938	1683.157836914062	-283.0165710449219	-1079.453125	936.1288452148438	-376.0835876464844	-1102.396850585938	940.7811279296875	11.87324047088623	-1010.236572265625	969.5611572265625	-44.49377059936523	-1000.631774902344	959.6504516601562	-320.7881774902344	-1077.814819335938	491.0986328125	-307.3013000488281	-1066.641845703125	654.9973754882812	-348.3207702636719	-1167.7216796875	27.25245094299316	-292.9966430664062	-1146.092529296875	249.3166198730469	-309.6277465820312	-955.803466796875	38.39935302734375	-236.1954650878906	-1027.099609375	42.86406707763672	-201.0907897949219	-1045.381103515625	31.51431083679199	-308.4063415527344	-1236.516235351562	31.08582496643066	-236.3539886474609	-1094.4990234375	496.5439758300781	-31.90713500976562	-1069.0478515625	785.551513671875	9.930844306945801	-1195.5634765625	38.32890319824219	-43.50988006591797	-1103.8427734375	354.9647216796875	-41.61400604248047	-973.2300415039062	37.95828628540039	-75.97866821289062	-1037.614501953125	32.76392364501953	-119.8186416625977	-1063.45947265625	40.44783782958984	-20.82378578186035	-1249.281616210938	25.83723449707031	-96.34410858154297	-989.165283203125	891.3138427734375	43.04383087158203	nan	nan	nan	nan	nan	nan	nan	nan	nan	
70	0.6900000000000001	-1216.177856445312	1017.294677734375	-117.587272644043	-1208.647338867188	1020.042785644531	-251.3565368652344	-1203.896240234375	1107.900634765625	-188.4585571289062	-972.623779296875	1292.62060546875	-191.5235137939453	-1215.256103515625	1233.683837890625	-190.0577087402344	-1163.5390625	1507.572631835938	-179.6095886230469	-990.0947875976562	1404.2109375	-192.0484619140625	-1236.49072265625	1383.45361328125	-92.00646209716797	-1199.1025390625	1454.683227539062	-270.8277587890625	-1102.609497070312	1477.670288085938	-355.9797058105469	-1116.878173828125	1349.86279296875	-433.6809997558594	-1100.571166992188	1129.0712890625	-456.09033203125	-1185.973388671875	1122.282836914062	-403.0081481933594	-1011.640075683594	885.9591674804688	-407.8987731933594	-1058.164794921875	862.9641723632812	-478.0569763183594	-1078.82666015625	1042.447509765625	-462.6897583007812	-1031.4501953125	716.2051391601562	-404.2723083496094	-1050.68701171875	803.1843872070312	-469.6570129394531	-997.5623168945312	807.4424438476562	-427.5040588378906	-1103.916137695312	1468.74267578125	-24.30168724060059	-1120.842651367188	1403.844970703125	43.97446441650391	-1118.992309570312	1113.875610351562	90.96481323242188	-1174.66259765625	1097.212158203125	66.45184326171875	-1030.669067382812	871.5642700195312	112.6465377807617	-1109.410034179688	1058.114501953125	98.88784790039062	-985.2839965820312	718.2027587890625	44.18235397338867	-962.2578735351562	799.3756713867188	57.3021240234375	-1014.298950195312	796.9305419921875	108.9735717773438	-1088.86962890625	1686.554077148438	-125.4746398925781	-914.5559692382812	1703.047607421875	-237.8652038574219	-952.1609497070312	1704.740478515625	-98.32490539550781	-1038.752563476562	1683.0498046875	-283.414306640625	-1079.074584960938	936.0393676757812	-376.6531982421875	-1102.113525390625	940.759765625	11.24082088470459	-1009.834594726562	969.5675048828125	-45.00122833251953	-1000.138000488281	959.6554565429688	-321.3070983886719	-1077.573486328125	491.0832824707031	-307.6104431152344	-1066.37548828125	654.9515380859375	-348.7687377929688	-1167.721313476562	27.24193000793457	-293.0025939941406	-1145.962646484375	249.2796173095703	-309.7640380859375	-955.848876953125	38.39634704589844	-236.2075653076172	-1027.115112304688	42.8624382019043	-201.0985412597656	-1045.38037109375	31.51319885253906	-308.4054565429688	-1236.53271484375	31.06570625305176	-236.3729553222656	-1094.078002929688	496.5167541503906	-32.28518295288086	-1068.7509765625	785.5726318359375	9.375880241394043	-1195.551635742188	38.34527206420898	-43.54496383666992	-1103.525634765625	354.9313659667969	-41.85341262817383	-973.235595703125	37.96150970458984	-75.98001098632812	-1037.62158203125	32.75017929077148	-119.8310470581055	-1063.462524414062	40.45941543579102	-20.84525108337402	-1249.289916992188	25.83731651306152	-96.34228515625	-989.0640258789062	891.1841430664062	42.87633895874023	nan	nan	nan	nan	nan	nan	nan	nan	nan	
